<svg width="80" height="81" viewBox="0 0 80 81" fill="none" xmlns="http://www.w3.org/2000/svg">
<path d="M4.73828 72.0694V22.9253C4.73828 21.511 5.48516 20.2018 6.70265 19.4821L37.6293 1.19858C38.8805 0.458878 40.4345 0.456127 41.6883 1.1914L72.8824 19.4843C74.1068 20.2023 74.859 21.5154 74.859 22.9347V72.0694C74.859 74.2785 73.0681 76.0694 70.859 76.0694H8.73828C6.52914 76.0694 4.73828 74.2785 4.73828 72.0694Z" fill="#FDA3C4" stroke="#1F1F1F"/>
<path d="M14.7628 52.2986C15.4652 49.9375 13.914 43.4957 13.0506 40.5699L4.738 41.252L4.738 55.2304L14.7628 52.2986Z" fill="white"/>
<path d="M4.29738 55.3593L4.738 55.2304M4.738 55.2304L14.7628 52.2986C15.4652 49.9375 13.914 43.4957 13.0506 40.5699L4.738 41.252L4.738 55.2304Z" stroke="#1F1F1F"/>
<path d="M33.4978 18.8455L32.4647 22.4003L31.2951 26.1984L47.0058 30.7519L48.9876 22.6505L43.7247 21.7501L33.4978 18.8455Z" fill="white" stroke="#1F1F1F"/>
<path d="M31.4903 30.0343L31.174 22.317L47.7918 21.773L48.7099 29.3143L31.4903 30.0343Z" fill="white" stroke="#1F1F1F"/>
<path d="M18.3794 37.2676C18.0169 37.2065 14.6816 39.8115 13.0592 41.1217C13.8757 42.7214 14.5372 49.5339 14.7659 52.7402C15.0115 53.0862 16.3521 53.7388 19.7495 53.5808C23.1469 53.4229 26.1046 44.9672 27.1587 40.7591L20.1936 40.4979C20.0805 40.6006 20.0238 40.5058 20.7025 39.3045C21.5508 37.8029 18.8324 37.3441 18.3794 37.2676Z" fill="white" stroke="#1F1F1F"/>
<path d="M57.5014 52.8289L57.1179 53.0835L57.3414 53.4865C57.43 53.6464 57.5661 53.7767 57.6899 53.8767C57.8207 53.9824 57.9748 54.0835 58.1363 54.1775C58.4599 54.3657 58.8486 54.5459 59.224 54.6955C59.5991 54.845 59.9776 54.9707 60.2839 55.0451C60.4343 55.0816 60.5858 55.1103 60.7186 55.1186C60.7835 55.1227 60.8658 55.1234 60.9506 55.1083C61.0201 55.0958 61.1845 55.0572 61.3092 54.907C61.3587 54.8475 61.3946 54.7798 61.4142 54.7416C61.4389 54.6934 61.4643 54.6379 61.4897 54.579C61.5408 54.4606 61.5993 54.3103 61.6608 54.1402C61.7841 53.7992 61.9256 53.3616 62.0504 52.907C62.1747 52.4543 62.2858 51.9726 62.344 51.5469C62.3731 51.3343 62.3905 51.125 62.3871 50.9344C62.3839 50.7524 62.3615 50.5453 62.2818 50.362L62.0432 49.8134L61.5453 50.144L57.5014 52.8289Z" fill="#F40000" stroke="#1F1F1F"/>
<path d="M52.9088 29.5879C53.5624 27.7245 52.5668 19.9329 51.9873 16.27C52.3634 15.928 58.1751 15.062 64.0719 14.3207L73.5106 20.1381L74.4095 21.033L74.859 24.1653L74.733 29.6287L52.9088 29.5879Z" fill="#1F1F1F" stroke="#1F1F1F"/>
<path d="M52.3843 29.5352C52.0934 29.3113 51.0098 26.3312 50.625 25.0273L53.2126 24.2706C53.3211 25.5909 52.748 29.8151 52.3843 29.5352Z" fill="#F40000" stroke="#1F1F1F"/>
<path d="M44.3337 24.91C43.0002 24.4323 43.5808 22.5994 44.0379 21.7427L38.7233 19.6093C40.775 18.8647 45.3097 17.2493 47.0348 16.7448C48.7598 16.2403 50.9165 16.188 51.7792 16.2249L52.9012 24.3566C51.9211 24.6433 48.6667 25.1612 47.9608 24.9338C47.2548 24.7064 46.0005 25.5071 44.3337 24.91Z" fill="white" stroke="#1F1F1F"/>
<path d="M26.4337 65.256L15.6732 43.108L43.0765 30.0347L56.699 58.3019L30.4623 71.034L26.4337 65.256Z" fill="#F40000" stroke="#1F1F1F"/>
<path d="M40.5479 66.214L26.2534 37.6764L31.8262 35.1856L47.4424 63.0903L40.5479 66.214Z" fill="#FDA3C4" stroke="#1F1F1F"/>
<path d="M31.2198 39.8084C31.2941 39.7818 31.3574 39.7596 31.4081 39.7384C31.5005 39.7041 31.5964 39.6683 31.6924 39.6326C31.7884 39.5968 31.9079 39.5467 32.0527 39.4861C32.1939 39.427 32.3514 39.3566 32.5143 39.2796C32.6844 39.1996 32.8039 39.1407 32.8709 39.1083C32.9378 39.0759 33.0066 39.0383 33.0862 38.9961C33.1659 38.954 33.2238 38.921 33.2618 38.9006C33.3034 38.8788 33.3504 38.8503 33.4011 38.8203L33.4771 38.7797C33.5115 38.7609 33.5495 38.7581 33.5913 38.7715C33.633 38.7848 33.6658 38.815 33.6895 38.8535C33.7131 38.8919 33.7224 38.9365 33.7134 38.9798C33.7045 39.0231 33.6847 39.0534 33.6467 39.0737L33.5707 39.1143C33.52 39.1443 33.4766 39.1713 33.4386 39.1916C33.4006 39.2119 33.3391 39.2465 33.2594 39.2886C33.1798 39.3308 33.1038 39.3714 33.0296 39.4069C32.959 39.4408 32.8432 39.4981 32.6766 39.5766C32.5029 39.6582 32.3454 39.7286 32.1969 39.7907C32.063 39.8468 31.9416 39.8932 31.8421 39.9305C31.8747 39.9432 31.9001 39.9502 31.9255 39.9571C31.9818 39.9819 32.0399 40.0104 32.0999 40.0425C32.1598 40.0745 32.2288 40.116 32.3106 40.1741C32.3888 40.2337 32.4524 40.2819 32.4942 40.3215C32.5433 40.3757 32.5998 40.4532 32.6636 40.554C32.7256 40.66 32.7621 40.7415 32.7787 40.8093C32.7952 40.8684 32.8062 40.9253 32.8137 40.9838C32.8157 41.0489 32.8051 41.1237 32.7855 41.2155C32.7604 41.3051 32.7334 41.3824 32.701 41.44C32.6649 41.499 32.6234 41.556 32.5747 41.6072C32.5205 41.6651 32.4156 41.7354 32.2545 41.8248C32.0917 41.9194 31.9704 41.9746 31.8979 41.9961C31.8237 42.0228 31.753 42.0392 31.6787 42.0483C31.6026 42.0538 31.5283 42.0542 31.4558 42.0493C31.3796 42.046 31.2925 42.0297 31.1963 42.004C31.1002 41.9783 31.0203 41.9502 30.9604 41.9181C30.9004 41.8861 30.8223 41.8352 30.7206 41.7635C30.6224 41.6902 30.5515 41.6276 30.506 41.5806C30.466 41.5358 30.4223 41.4838 30.3749 41.4156C30.3312 41.3548 30.2966 41.3033 30.2711 41.2612C30.2492 41.2264 30.2273 41.1916 30.2073 41.1604C30.1836 41.1219 30.1562 41.0674 30.1252 40.9969C30.0905 40.919 30.0703 40.8527 30.0647 40.7979L30.0609 40.7467C30.0517 40.7022 30.0624 40.6625 30.0859 40.6307C30.1129 40.5974 30.1492 40.5822 30.1927 40.5816C30.2362 40.581 30.2743 40.5958 30.3088 40.6297C30.3434 40.6636 30.3617 40.6999 30.3673 40.746L30.3747 40.8044C30.3802 40.8241 30.3912 40.8547 30.4076 40.8962C30.4332 40.947 30.4533 40.987 30.4679 41.0161C30.4861 41.0436 30.508 41.0785 30.5317 41.1169C30.5535 41.1517 30.5845 41.1959 30.6191 41.2474C30.6592 41.301 30.6938 41.3437 30.7229 41.3755C30.7465 41.4052 30.7993 41.449 30.8774 41.5087C30.961 41.5704 31.0246 41.6098 31.0628 41.6334C31.1027 41.6518 31.1608 41.6715 31.2334 41.6939C31.306 41.7162 31.3695 41.7292 31.4275 41.7313C31.4819 41.7349 31.5363 41.7298 31.5943 41.7231C31.6468 41.7143 31.7066 41.7024 31.77 41.6891C31.8298 41.6684 31.9275 41.6187 32.0723 41.5405C32.2134 41.455 32.302 41.3959 32.3382 41.3632C32.3725 41.3268 32.4068 41.2905 32.4302 41.2499C32.4501 41.2108 32.468 41.1593 32.4859 41.099C32.4948 41.0381 32.5037 40.9948 32.5018 40.9648C32.5017 40.9297 32.4961 40.8924 32.4869 40.8567C32.476 40.8261 32.4504 40.7753 32.4085 40.7005C32.3629 40.6272 32.3265 40.5809 32.301 40.5563C32.2701 40.5209 32.2228 40.4791 32.1574 40.4362C32.0956 40.3917 32.0393 40.3581 31.9975 40.336C31.9503 40.3118 31.8976 40.2855 31.8504 40.2613C31.8069 40.2443 31.7179 40.2244 31.5873 40.1999C31.551 40.1887 31.5166 40.1811 31.4875 40.1757C31.4059 40.1615 31.3442 40.1522 31.3025 40.1476C31.2573 40.1622 31.2084 40.1783 31.1577 40.1995C30.9893 40.2568 30.8534 40.3005 30.7502 40.3305C30.6488 40.3642 30.5691 40.3888 30.5148 40.4027C30.4568 40.4182 30.3916 40.4367 30.3119 40.4613C30.2286 40.4874 30.1706 40.5029 30.1398 40.5113C30.1054 40.5214 30.0565 40.5287 29.9931 40.5332C29.9876 40.5311 29.9804 40.5254 29.9713 40.5248C29.9604 40.5205 29.9477 40.5127 29.9186 40.4984C29.8932 40.4827 29.8696 40.4706 29.8496 40.457C29.8296 40.4433 29.8078 40.4261 29.7878 40.4037C29.7678 40.3813 29.7532 40.361 29.7477 40.3413C29.7422 40.3216 29.7403 40.3004 29.7511 40.2783C29.7619 40.2562 29.7782 40.2362 29.8071 40.2153C29.836 40.1944 29.8704 40.1756 29.9066 40.1516C29.9428 40.1277 29.9808 40.1074 30.0115 40.0901C30.0495 40.0698 30.0912 40.048 30.1346 40.0298C30.1781 40.0116 30.2632 39.9803 30.3899 39.9361C30.5203 39.8903 30.6199 39.8617 30.6851 39.852C30.7486 39.8387 30.8138 39.8289 30.8772 39.8244C30.9407 39.8198 31.0041 39.8152 31.0748 39.8164C31.1237 39.8003 31.169 39.8033 31.2198 39.8084Z" fill="#1F1F1F"/>
<path d="M31.7703 44.5807C31.7192 44.5666 31.6789 44.5391 31.6513 44.4931L31.5925 44.4025C31.5429 44.3213 31.495 44.2173 31.4524 44.0801C31.4117 43.9465 31.391 43.8178 31.3832 43.6971C31.379 43.5836 31.3858 43.4833 31.3982 43.4028C31.4161 43.3156 31.4539 43.198 31.5262 43.0526C31.5948 42.9087 31.6564 42.8032 31.7126 42.7398C31.7707 42.6713 31.8871 42.5872 32.0617 42.4876C32.2346 42.3843 32.362 42.3222 32.4495 42.3034C32.5351 42.2897 32.6537 42.28 32.8069 42.278C32.9601 42.2759 33.0988 42.2888 33.2193 42.3093C33.338 42.335 33.4385 42.3595 33.5171 42.3931C33.5993 42.4252 33.6999 42.485 33.828 42.5732C33.9671 42.6657 34.0936 42.7944 34.2056 42.9558C34.3157 43.1135 34.3838 43.2313 34.4134 43.3164C34.4447 43.3963 34.469 43.5146 34.4825 43.6729C34.4978 43.8348 34.502 43.9571 34.4951 44.0397C34.4882 44.1223 34.4613 44.2177 34.4216 44.3229C34.3801 44.4244 34.3349 44.5098 34.2896 44.5686C34.2424 44.6326 34.1589 44.7118 34.0371 44.8026C33.9134 44.8897 33.7897 44.9592 33.6732 45.0079C33.5639 45.0536 33.4692 45.0843 33.3908 45.1038C33.3107 45.1284 33.194 45.1417 33.0372 45.1541C32.8785 45.1629 32.7398 45.1588 32.623 45.1368C32.5025 45.1163 32.3782 45.0708 32.2483 44.9966C32.1148 44.9239 32.0234 44.8647 31.9721 44.8153C31.9171 44.7762 31.8493 44.6938 31.7703 44.5807ZM31.697 43.7165C31.7556 43.754 31.7904 43.797 31.8016 43.8544L31.8186 43.9669C31.8261 44.0258 31.8428 44.0852 31.8705 44.149C31.8927 44.2106 31.9368 44.2896 32.0048 44.3896C32.0727 44.4897 32.1223 44.5532 32.1552 44.5837C32.1882 44.6142 32.2577 44.656 32.3565 44.7122C32.4589 44.7668 32.5503 44.7995 32.6343 44.8176C32.7238 44.8377 32.8314 44.8415 32.9627 44.8309C33.0995 44.8224 33.2034 44.81 33.2672 44.7966C33.3328 44.7781 33.4147 44.7482 33.5167 44.7056C33.6114 44.666 33.7151 44.6094 33.8224 44.5335C33.926 44.4592 33.9933 44.4001 34.0204 44.3577C34.0513 44.3138 34.0856 44.2507 34.1199 44.17C34.1542 44.0892 34.1721 44.0197 34.1792 43.9636C34.1862 43.9075 34.1821 43.8117 34.1669 43.6763C34.1481 43.5424 34.1312 43.4476 34.1091 43.3948C34.0924 43.3442 34.0428 43.2542 33.9528 43.1279C33.8665 43.009 33.7712 42.9159 33.676 42.8494C33.5699 42.7785 33.4912 42.7273 33.4401 42.7044C33.3797 42.6808 33.2975 42.6576 33.1953 42.6383C33.0967 42.6175 32.9817 42.608 32.8467 42.6113C32.7136 42.6094 32.6133 42.6203 32.5513 42.6373C32.493 42.6528 32.3893 42.7006 32.24 42.7807C32.0908 42.8697 31.9999 42.9342 31.9618 42.9812C31.9201 43.0296 31.8712 43.1165 31.8116 43.2433C31.7538 43.3649 31.7196 43.4546 31.7052 43.5137C31.7055 43.5668 31.7003 43.6354 31.697 43.7165Z" fill="#1F1F1F"/>
<path d="M33.2996 47.6954C33.2485 47.6814 33.2082 47.6539 33.1806 47.6078L33.1218 47.5172C33.0722 47.4361 33.0243 47.3321 32.9817 47.1948C32.941 47.0613 32.9203 46.9326 32.9125 46.8118C32.9083 46.6984 32.9151 46.5981 32.9275 46.5176C32.9454 46.4304 32.9832 46.3127 33.0555 46.1673C33.1241 46.0234 33.1857 45.918 33.2419 45.8546C33.3 45.786 33.4164 45.7019 33.591 45.6023C33.7639 45.4991 33.8913 45.4369 33.9788 45.4181C34.0644 45.4044 34.183 45.3948 34.3362 45.3927C34.4894 45.3907 34.6281 45.4036 34.7486 45.4241C34.8673 45.4498 34.9678 45.4742 35.0464 45.5078C35.1286 45.5399 35.2292 45.5997 35.3573 45.6879C35.4964 45.7804 35.6228 45.9092 35.7349 46.0706C35.845 46.2283 35.9131 46.346 35.9427 46.4311C35.974 46.511 35.9983 46.6293 36.0118 46.7876C36.0271 46.9495 36.0313 47.0718 36.0244 47.1544C36.0175 47.2371 35.9906 47.3325 35.9509 47.4377C35.9094 47.5392 35.8642 47.6245 35.8189 47.6833C35.7717 47.7473 35.6882 47.8266 35.5664 47.9174C35.4427 48.0045 35.319 48.0739 35.2025 48.1226C35.0932 48.1683 34.9985 48.199 34.9201 48.2185C34.84 48.2431 34.7233 48.2565 34.5665 48.2689C34.4078 48.2776 34.2691 48.2736 34.1523 48.2515C34.0318 48.231 33.9075 48.1855 33.7776 48.1113C33.6441 48.0387 33.5527 47.9795 33.5014 47.93C33.4464 47.891 33.3786 47.8086 33.2996 47.6954ZM33.2263 46.8312C33.2849 46.8688 33.3197 46.9118 33.3309 46.9691L33.3479 47.0816C33.3554 47.1405 33.3721 47.2 33.3998 47.2637C33.422 47.3253 33.4661 47.4043 33.5341 47.5044C33.602 47.6044 33.6516 47.6679 33.6845 47.6984C33.7175 47.7289 33.787 47.7707 33.8858 47.8269C33.9882 47.8816 34.0796 47.9143 34.1636 47.9323C34.2531 47.9525 34.3607 47.9562 34.492 47.9456C34.6288 47.9372 34.7327 47.9247 34.7965 47.9114C34.8621 47.8928 34.944 47.863 35.046 47.8204C35.1407 47.7808 35.2444 47.7241 35.3517 47.6483C35.4553 47.5739 35.5226 47.5148 35.5497 47.4725C35.5805 47.4286 35.6149 47.3655 35.6492 47.2847C35.6835 47.2039 35.7014 47.1344 35.7085 47.0783C35.7155 47.0222 35.7114 46.9265 35.6962 46.7911C35.6774 46.6572 35.6605 46.5623 35.6384 46.5096C35.6217 46.459 35.572 46.369 35.4821 46.2427C35.3958 46.1237 35.3005 46.0306 35.2053 45.9641C35.0992 45.8933 35.0205 45.842 34.9693 45.8191C34.909 45.7956 34.8268 45.7724 34.7246 45.7531C34.626 45.7323 34.511 45.7228 34.376 45.726C34.2429 45.7241 34.1426 45.735 34.0806 45.7521C34.0223 45.7676 33.9186 45.8154 33.7693 45.8955C33.6201 45.9844 33.5292 46.049 33.4911 46.0959C33.4494 46.1444 33.4005 46.2313 33.3409 46.3581C33.2831 46.4797 33.2488 46.5693 33.2345 46.6285C33.2348 46.6815 33.2296 46.7501 33.2263 46.8312Z" fill="#1F1F1F"/>
<path d="M37.7842 54.501C37.7589 54.5116 37.7299 54.5238 37.7046 54.5344C37.6412 54.5653 37.5815 54.5947 37.5182 54.6257C37.4548 54.6566 37.3987 54.6845 37.348 54.7057C37.2937 54.7284 37.234 54.7491 37.1706 54.7712L37.0692 54.8137C37.0312 54.8252 36.9895 54.8207 36.9495 54.8022C36.9096 54.7838 36.8768 54.7535 36.8604 54.712C36.8439 54.6705 36.8401 54.6281 36.8491 54.5848C36.8616 54.54 36.8887 54.5154 36.9267 54.5039L37.0209 54.4645C37.0879 54.4408 37.144 54.4217 37.1947 54.4005C37.2418 54.3808 37.2979 54.3529 37.354 54.325C37.4137 54.2956 37.4734 54.2662 37.5404 54.2337C37.6128 54.2034 37.7341 54.1482 37.9079 54.0666C38.0346 54.0048 38.1377 53.9572 38.2174 53.9238C38.259 53.902 38.3079 53.8771 38.364 53.8492C38.5196 53.7753 38.6337 53.7231 38.7133 53.6897C38.793 53.6564 38.8745 53.6267 38.9542 53.6021C38.9578 53.6006 38.965 53.5975 38.9723 53.5945C38.9795 53.5915 38.9958 53.589 39.0176 53.5887C39.0393 53.5884 39.0593 53.5845 39.081 53.5841C39.1028 53.5838 39.1227 53.5887 39.1445 53.5971C39.1663 53.6056 39.1844 53.6156 39.2008 53.6307C39.2172 53.6459 39.2299 53.6625 39.2391 53.6895C39.2482 53.7164 39.2502 53.7464 39.2467 53.7831C39.2414 53.8424 39.2252 53.88 39.2054 53.9015C39.1855 53.923 39.1674 53.9306 39.1456 53.9221L39.1184 53.9115C39.0568 53.9373 38.9844 53.9676 38.8975 54.004C38.8106 54.0404 38.7346 54.0723 38.6622 54.1026C38.5934 54.1314 38.521 54.1617 38.4449 54.1936C38.4286 54.2048 38.4087 54.2175 38.3798 54.2296C38.3273 54.256 38.2893 54.2763 38.2549 54.2951C38.409 54.2966 38.5232 54.2971 38.5994 54.3004C38.681 54.3058 38.7608 54.3164 38.8442 54.3254C38.9313 54.3329 39.0673 54.3595 39.2487 54.3979C39.4429 54.4441 39.5699 54.4789 39.6298 54.5022C39.6952 54.5364 39.7606 54.5794 39.826 54.6311L39.8933 54.6953C39.9297 54.7241 39.9534 54.7625 39.9608 54.8122C39.9664 54.8582 39.9593 54.8964 39.9358 54.9282C39.9124 54.96 39.8761 54.9752 39.829 54.9773C39.7855 54.9779 39.7438 54.9646 39.711 54.9344L39.6401 54.8717C39.6074 54.8414 39.5728 54.8163 39.542 54.7985C39.5038 54.7836 39.3986 54.7573 39.2335 54.7165C39.0575 54.6803 38.9324 54.6579 38.858 54.6495C38.78 54.6426 38.7057 54.6341 38.6295 54.6308C38.5533 54.6275 38.4337 54.6249 38.2705 54.6228C38.0874 54.616 37.9604 54.5988 37.8824 54.5743C37.8479 54.5492 37.8152 54.5277 37.7842 54.501Z" fill="#1F1F1F"/>
<path d="M37.886 56.7944C37.8449 56.7729 37.8164 56.7419 37.7969 56.7027C37.7774 56.6635 37.7776 56.6203 37.7885 56.5811C37.803 56.5405 37.8246 56.5141 37.8604 56.4989L37.9178 56.4832C37.9536 56.468 38.0146 56.4422 38.1007 56.4057C38.1867 56.3693 38.2584 56.3389 38.3122 56.3161C38.3624 56.2948 38.4324 56.2609 38.5203 56.2193C38.6117 56.1763 38.7193 56.122 38.8413 56.0617C38.9651 55.9964 39.0817 55.934 39.1929 55.8783C39.3041 55.8225 39.392 55.781 39.4601 55.7435C39.5283 55.706 39.5929 55.67 39.6646 55.6309C39.7364 55.5919 39.7866 55.562 39.8136 55.5463C39.8351 55.5371 39.8584 55.5229 39.8835 55.5037L39.9302 55.4753C39.9589 55.4545 39.9947 55.4479 40.0358 55.4607C40.0805 55.472 40.1144 55.4964 40.1375 55.5341C40.1642 55.5702 40.173 55.614 40.1692 55.6587C40.1654 55.7035 40.1456 55.7334 40.1115 55.7522L40.0738 55.7811C40.0397 55.7999 40.0092 55.8171 39.9823 55.8328C39.9572 55.8435 39.9105 55.8719 39.8406 55.9145C39.7688 55.9535 39.697 55.9925 39.6289 56.03C39.5607 56.0675 39.471 56.1142 39.3598 56.1699C39.2468 56.2221 39.1285 56.2809 39.0065 56.3412C38.8827 56.4066 38.7769 56.4644 38.6854 56.5074C38.594 56.5505 38.524 56.5844 38.4702 56.6072C38.4164 56.63 38.3447 56.6604 38.2551 56.6984C38.1654 56.7364 38.1009 56.7637 38.065 56.7789L38.0005 56.7976C37.9664 56.8164 37.927 56.8158 37.886 56.7944Z" fill="#1F1F1F"/>
<path d="M40.5463 56.2578C40.5901 56.2572 40.6285 56.2722 40.6615 56.3027C40.6945 56.3332 40.7147 56.3735 40.7259 56.422C40.7316 56.4684 40.7245 56.5068 40.7009 56.5389L40.601 56.6559C40.5303 56.7431 40.4376 56.8395 40.3267 56.9434C40.2268 57.0428 40.1469 57.1206 40.096 57.1773C40.0452 57.2428 39.9763 57.3337 39.8874 57.4462C39.8003 57.5624 39.6969 57.6987 39.5826 57.8484C39.4646 57.9997 39.3921 58.1009 39.3577 58.1552C39.3196 58.211 39.2852 58.2653 39.2525 58.3144C39.2253 58.3568 39.1946 58.4184 39.1658 58.5013C39.1604 58.5169 39.1568 58.5361 39.1514 58.5516C39.1825 58.5608 39.2153 58.5648 39.2501 58.5725C39.3944 58.5964 39.4985 58.6105 39.5642 58.6096C39.6426 58.6078 39.7211 58.606 39.8069 58.6012C39.8981 58.5985 40.0569 58.5898 40.2868 58.5735C40.5149 58.5623 40.6718 58.5588 40.7594 58.5576C40.847 58.5564 40.9511 58.5529 41.0715 58.5468C41.1901 58.546 41.2741 58.5464 41.327 58.5464L41.3982 58.5477C41.4365 58.5449 41.4768 58.5636 41.5098 58.5941C41.5446 58.6283 41.5649 58.6686 41.5742 58.7134C41.5799 58.7598 41.5728 58.7982 41.5437 58.8281C41.5165 58.8617 41.4837 58.8754 41.438 58.8723L41.3705 58.8783C41.3249 58.8753 41.2409 58.8749 41.1223 58.8757C41.0018 58.8818 40.9015 58.8838 40.8175 58.8835C40.7354 58.8868 40.5784 58.8903 40.3467 58.903C40.115 58.9156 39.9544 58.9207 39.8704 58.9292C39.7792 58.9319 39.6971 58.9352 39.6186 58.937C39.5328 58.9418 39.4087 58.9316 39.2443 58.9029C39.2351 58.9022 39.2169 58.901 39.1913 58.894C39.1676 58.8906 39.1475 58.8857 39.1365 58.8814C39.1255 58.8771 39.1054 58.8723 39.0762 58.8667C39.047 58.8612 39.0269 58.8563 39.0159 58.8521C39.0049 58.8478 38.9866 58.8377 38.9628 58.8255C38.9391 58.8133 38.9226 58.798 38.9115 58.7849C38.9005 58.7717 38.8877 58.755 38.8693 58.736C38.851 58.7171 38.84 58.6951 38.8435 58.6671C38.8121 58.5871 38.8226 58.4852 38.8694 58.3593C38.9018 58.2482 38.9361 58.1674 38.9778 58.1101C39.0086 58.0573 39.043 58.003 39.0811 57.9472C39.121 57.8863 39.199 57.7783 39.3242 57.624C39.4421 57.4728 39.5437 57.3417 39.629 57.2218C39.7161 57.1056 39.7886 57.0133 39.8413 56.9514C39.8994 56.8828 39.9829 56.7946 40.0919 56.687C40.1992 56.5934 40.2828 56.5053 40.3463 56.43L40.4425 56.3056C40.466 56.2736 40.5025 56.2584 40.5463 56.2578Z" fill="#1F1F1F"/>
<path d="M41.3359 62.3636L41.3322 62.3563C41.2793 62.3474 41.2319 62.3407 41.1919 62.3398C41.1517 62.33 41.108 62.3218 41.0624 62.3099C41.0022 62.2952 40.8891 62.254 40.7266 62.1848C40.5605 62.1171 40.4437 62.0598 40.3797 62.0114C40.3175 61.9666 40.259 61.9203 40.2078 61.8709C40.1566 61.8215 40.109 61.7707 40.0614 61.7198C40.0156 61.6637 39.9679 61.5952 39.922 61.5127C39.8797 61.4286 39.8465 61.3275 39.8241 61.213C39.8072 61.1094 39.8014 61.0278 39.7993 60.9712C39.7973 60.9145 39.7988 60.8564 39.8076 60.7952C39.8128 60.7355 39.8326 60.6697 39.8596 60.6009C39.8939 60.5203 39.9482 60.4445 40.0298 60.3705C40.1042 60.2996 40.1678 60.2509 40.2241 60.223C40.2768 60.1965 40.3405 60.1743 40.4224 60.1533C40.5006 60.1339 40.5698 60.1315 40.6318 60.1321C40.6974 60.1313 40.7885 60.1462 40.9089 60.1755C41.0329 60.2033 41.1278 60.2344 41.1899 60.2704C41.2465 60.3042 41.3031 60.338 41.3598 60.3807C41.4165 60.4234 41.4878 60.4776 41.5683 60.5501C41.6524 60.63 41.7349 60.7326 41.8046 60.8538C41.878 60.9736 41.9259 61.0774 41.9372 61.1612C41.9503 61.2486 41.9345 61.3834 41.8934 61.5643C41.8881 61.5887 41.8809 61.6094 41.8755 61.6337C41.9554 61.5649 42.0207 61.5111 42.0661 61.47C42.1187 61.417 42.1803 61.347 42.2528 61.2548C42.3234 61.1678 42.3741 61.0935 42.4084 61.0305C42.4446 60.9711 42.4698 60.9075 42.4878 60.8469C42.5021 60.7967 42.509 60.7053 42.5085 60.5817C42.5061 60.4544 42.4928 60.3494 42.4652 60.268C42.4374 60.1779 42.4116 60.1091 42.3859 60.0579C42.3619 60.0016 42.3362 59.9504 42.2996 59.9038C42.2793 59.8636 42.2171 59.7923 42.1219 59.6994C42.0488 59.6326 41.9921 59.59 41.9592 59.5683L41.899 59.5537C41.8571 59.5403 41.8187 59.5165 41.7912 59.4793C41.7637 59.4422 41.7508 59.3989 41.7542 59.3532C41.7576 59.3076 41.7812 59.2756 41.8139 59.2531C41.8466 59.2306 41.8866 59.2227 41.9267 59.2324L41.9997 59.255C42.0781 59.2709 42.1823 59.3468 42.3195 59.4796C42.4458 59.5994 42.5245 59.6947 42.5631 59.7626C42.6016 59.8217 42.6365 59.8823 42.6641 59.946C42.699 60.0154 42.7322 60.1077 42.7637 60.214C42.7988 60.3276 42.8176 60.4613 42.8183 60.6202C42.8227 60.7777 42.8141 60.9007 42.7908 60.9856C42.7657 61.0669 42.7351 61.1461 42.6917 61.2261C42.6483 61.3062 42.5868 61.3939 42.5053 61.4943C42.4237 61.5947 42.353 61.673 42.2932 61.7289C42.2333 61.7849 42.148 61.8604 42.03 61.9584C41.923 62.0518 41.8486 62.1227 41.805 62.1675C41.7561 62.2101 41.7052 62.249 41.6562 62.2916C41.6072 62.3342 41.5727 62.3619 41.5509 62.3799C41.5329 62.414 41.4892 62.4234 41.4217 62.4118L41.3359 62.3636ZM41.3454 62.0411C41.3689 62.0004 41.3942 61.9632 41.4123 61.9291C41.4376 61.8832 41.4647 61.832 41.4936 61.7757C41.5188 61.7209 41.553 61.6137 41.5887 61.4572C41.6227 61.3059 41.6368 61.2115 41.6275 61.1668C41.6201 61.1345 41.5961 61.0781 41.5502 60.9956C41.497 60.9073 41.4402 60.8381 41.3835 60.7866C41.3158 60.722 41.2573 60.6757 41.2116 60.6461C41.1659 60.6166 41.1203 60.587 41.0746 60.5575C41.0381 60.5373 40.9706 60.5169 40.8794 60.4931C40.7845 60.4708 40.7207 60.4577 40.6806 60.4568C40.6424 60.4595 40.5877 60.4646 40.5277 60.4765C40.4731 60.4904 40.4312 60.5035 40.4003 60.5209C40.3676 60.5345 40.3222 60.5668 40.266 60.6213C40.2134 60.6742 40.179 60.7196 40.1646 60.761C40.1448 60.8091 40.1322 60.8541 40.1287 60.891C40.1252 60.9278 40.1236 60.9683 40.122 61.0088C40.1203 61.0493 40.1315 61.1154 40.1483 61.2013C40.1596 61.2762 40.1781 61.3392 40.2038 61.3904C40.2369 61.4474 40.268 61.4918 40.2937 61.5253C40.3248 61.561 40.3614 61.5988 40.4035 61.6387C40.4456 61.6786 40.4895 61.7133 40.5352 61.7517C40.5809 61.7813 40.674 61.8264 40.8145 61.8871C40.9587 61.9462 41.0518 61.9825 41.0883 61.9938C41.1321 62.002 41.174 62.0066 41.2068 62.0106C41.2323 62.0176 41.2797 62.0244 41.3454 62.0411Z" fill="#1F1F1F"/>
<path d="M48.1198 41.6133L20.4711 53.248L24.067 60.4075L50.3044 46.1563L48.1198 41.6133Z" fill="#FDA3C4" stroke="#1F1F1F"/>
<path d="M48.4804 42.0685C48.8006 40.2334 54.6394 41.2831 57.5188 42.0373L60.6531 52.6581C59.2232 54.3824 55.8284 57.7697 53.6882 57.5249C51.9611 57.3274 51.9347 56.3018 52.2533 55.5308C51.7942 56.1747 50.8911 56.7549 49.5481 55.9058C47.853 54.8343 48.7005 53.0336 49.3361 52.2672C48.6345 53.0529 46.9424 54.2299 45.7874 52.652C44.7359 51.2156 46.1344 49.7723 47.1818 49.0756C46.7748 49.2269 46.1651 49.1007 45.6761 47.8956C45.0443 46.3389 47.9272 45.0604 49.4476 44.6158C48.9918 44.5313 48.1603 43.9036 48.4804 42.0685Z" fill="white" stroke="#1F1F1F"/>
<path d="M57.4025 41.6426L61.2426 54.6552L74.8583 51.2222L74.8583 34.1384L57.4025 41.6426Z" fill="#1F1F1F" stroke="#1F1F1F"/>
<path d="M32.787 75.7209C32.4864 74.1217 27.2593 69.3239 24.6834 67.1249L13.279 76.0623L32.787 75.7209Z" fill="white" stroke="#1F1F1F"/>
<path d="M28.0657 60.5809C26.6629 60.4806 25.2294 65.0265 24.6879 67.3119L32.2599 75.5202C31.6369 75.3479 30.8157 75.1343 32.5152 75.6582C34.6396 76.3132 40.5221 72.253 40.5126 70.7668C40.5051 69.5778 39.2956 69.0665 38.6919 68.9595C39.2652 68.7209 40.3983 67.9074 40.3445 66.5617C40.2907 65.2161 37.4337 65.7603 36.6516 65.7763C37.0274 65.5955 38.9825 63.9821 38.6782 62.3694C38.3739 60.7567 36.2134 61.5304 35.1712 62.1188C35.2724 61.7347 35.2079 60.7892 34.1405 60.0804C33.073 59.3716 30.8982 61.454 29.9442 62.5839C29.8528 61.5471 29.8193 60.7062 28.0657 60.5809Z" fill="white" stroke="#1F1F1F"/>
<ellipse cx="8.78402" cy="44.2965" rx="1.34847" ry="1.3424" fill="#FDA3C4" stroke="#1F1F1F"/>
<ellipse cx="12.3797" cy="48.7762" rx="1.34847" ry="1.3424" fill="#FDA3C4" stroke="#1F1F1F"/>
<ellipse cx="6.98519" cy="52.35" rx="1.34847" ry="1.3424" fill="#FDA3C4" stroke="#1F1F1F"/>
<ellipse cx="24.0672" cy="69.359" rx="1.34847" ry="1.3424" fill="#FDA3C4" stroke="#1F1F1F"/>
<ellipse cx="27.6627" cy="74.7299" rx="1.34847" ry="1.3424" fill="#FDA3C4" stroke="#1F1F1F"/>
<ellipse cx="18.6724" cy="74.7299" rx="1.34847" ry="1.3424" fill="#FDA3C4" stroke="#1F1F1F"/>
<path d="M41.9964 25.9546C41.9964 27.1591 41.015 28.1394 39.7995 28.1394C38.584 28.1394 37.6025 27.1591 37.6025 25.9546C37.6025 24.7501 38.584 23.7698 39.7995 23.7698C41.015 23.7698 41.9964 24.7501 41.9964 25.9546Z" stroke="black"/>
<path d="M32.6055 23.7168L33.055 28.6389L37.1004 28.1915" stroke="#1F1F1F"/>
<path d="M24.7353 55.6237C24.7053 55.5424 24.6805 55.4729 24.6567 55.4174C24.6183 55.3162 24.5781 55.211 24.538 55.1059C24.4978 55.0007 24.4418 54.8698 24.3739 54.7111C24.3076 54.5564 24.2289 54.3839 24.1427 54.2055C24.0532 54.0191 23.9874 53.8883 23.9511 53.815C23.9148 53.7416 23.8728 53.6663 23.8257 53.5791C23.7786 53.4919 23.7417 53.4286 23.719 53.3869C23.6946 53.3414 23.6628 53.2899 23.6293 53.2344L23.5839 53.1512C23.5629 53.1136 23.5597 53.0718 23.5742 53.0259C23.5887 52.98 23.6221 52.9439 23.6646 52.9177C23.707 52.8915 23.7563 52.8811 23.8043 52.8907C23.8524 52.9003 23.886 52.9219 23.9087 52.9635L23.9541 53.0467C23.9876 53.1022 24.0177 53.1497 24.0404 53.1913C24.0631 53.2329 24.1017 53.3003 24.1488 53.3875C24.1959 53.4747 24.2413 53.5579 24.281 53.6392C24.319 53.7165 24.3831 53.8433 24.4709 54.0257C24.5622 54.2161 24.6409 54.3886 24.7105 54.5512C24.7734 54.698 24.8254 54.8309 24.8673 54.94C24.8812 54.9041 24.8887 54.8762 24.8963 54.8482C24.9235 54.7863 24.9547 54.7224 24.9899 54.6564C25.0251 54.5905 25.0707 54.5145 25.1346 54.4244C25.2003 54.3383 25.2533 54.2682 25.297 54.2221C25.3567 54.1679 25.4423 54.1055 25.5537 54.0349C25.6707 53.9663 25.7608 53.9258 25.8358 53.9073C25.9011 53.8888 25.9642 53.8764 26.0289 53.8679C26.101 53.8654 26.1839 53.8766 26.2857 53.8977C26.3851 53.9248 26.4708 53.9539 26.5348 53.9892C26.6004 54.0285 26.6637 54.0738 26.7207 54.1271C26.7851 54.1862 26.8635 54.301 26.9634 54.4774C27.0691 54.6556 27.1308 54.7885 27.1551 54.8679C27.185 54.9493 27.2035 55.0267 27.214 55.1082C27.2205 55.1918 27.2213 55.2734 27.2163 55.353C27.2131 55.4366 27.1954 55.5323 27.1675 55.638C27.1395 55.7437 27.1088 55.8315 27.0736 55.8975C27.0383 55.9635 26.9824 56.0495 26.9035 56.1616C26.8229 56.2697 26.7538 56.3479 26.7021 56.398C26.6527 56.4422 26.5952 56.4904 26.52 56.5428C26.4528 56.5911 26.396 56.6294 26.3495 56.6576C26.311 56.6818 26.2726 56.706 26.2381 56.7282C26.1957 56.7544 26.1354 56.7847 26.0574 56.8192C25.9714 56.8577 25.8981 56.8801 25.8374 56.8866L25.7807 56.891C25.7314 56.9014 25.6874 56.8898 25.652 56.8642C25.615 56.8347 25.598 56.795 25.5971 56.7472C25.5962 56.6995 25.6124 56.6576 25.6498 56.6194C25.6871 56.5813 25.7273 56.5611 25.7782 56.5547L25.843 56.5462C25.8647 56.5401 25.8986 56.5279 25.9444 56.5096C26.0006 56.4813 26.0448 56.459 26.0769 56.4429C26.1074 56.4227 26.1458 56.3985 26.1883 56.3723C26.2267 56.3481 26.2756 56.3139 26.3324 56.2756C26.3915 56.2314 26.4386 56.1932 26.4737 56.161C26.5065 56.1349 26.5548 56.0768 26.6204 55.9907C26.6884 55.8986 26.7316 55.8286 26.7576 55.7866C26.7778 55.7426 26.7993 55.6788 26.8237 55.599C26.8481 55.5192 26.8622 55.4494 26.8642 55.3857C26.8679 55.326 26.8619 55.2663 26.8542 55.2027C26.8441 55.145 26.8307 55.0795 26.8156 55.0099C26.7924 54.9445 26.7368 54.8374 26.6495 54.6789C26.554 54.5244 26.4881 54.4275 26.4517 54.3879C26.4112 54.3505 26.3707 54.313 26.3256 54.2875C26.2823 54.2659 26.2251 54.2465 26.1582 54.2271C26.0908 54.2177 26.0427 54.2081 26.0095 54.2104C25.9706 54.2107 25.9294 54.217 25.8898 54.2273C25.856 54.2395 25.7998 54.2678 25.7172 54.3142C25.6362 54.3646 25.5851 54.4049 25.5581 54.4329C25.519 54.4671 25.473 54.5192 25.4257 54.5912C25.3768 54.6593 25.3398 54.7213 25.3156 54.7673C25.289 54.8192 25.2601 54.8772 25.2336 54.9291C25.215 54.977 25.1934 55.0747 25.167 55.2182C25.1548 55.2581 25.1466 55.296 25.1407 55.3279C25.1254 55.4176 25.1154 55.4853 25.1106 55.5311C25.1269 55.5808 25.145 55.6344 25.1688 55.6899C25.2332 55.8745 25.2823 56.0233 25.3161 56.1365C25.3539 56.2477 25.3815 56.335 25.3973 56.3946C25.4147 56.4581 25.4356 56.5296 25.4632 56.617C25.4925 56.7083 25.51 56.7718 25.5195 56.8056C25.5308 56.8433 25.5391 56.897 25.5445 56.9666C25.5422 56.9726 25.5359 56.9806 25.5353 56.9905C25.5306 57.0025 25.522 57.0165 25.5064 57.0485C25.4891 57.0765 25.4758 57.1025 25.4608 57.1245C25.4458 57.1465 25.4268 57.1705 25.4021 57.1926C25.3774 57.2147 25.355 57.2308 25.3333 57.237C25.3115 57.2431 25.288 57.2453 25.2634 57.2335C25.2389 57.2218 25.2167 57.2041 25.1933 57.1724C25.17 57.1407 25.149 57.1031 25.1223 57.0635C25.0956 57.0239 25.0729 56.9823 25.0536 56.9486C25.0309 56.907 25.0065 56.8614 24.9861 56.8138C24.9657 56.7662 24.9307 56.673 24.881 56.5341C24.8296 56.3912 24.7975 56.282 24.7864 56.2104C24.7712 56.1409 24.7601 56.0693 24.7547 55.9997C24.7493 55.9301 24.7439 55.8605 24.7449 55.7829C24.7268 55.7293 24.7299 55.6795 24.7353 55.6237Z" fill="#1F1F1F"/>
<path d="M30.0251 54.9916C30.0097 55.0478 29.9795 55.0921 29.9286 55.1226L29.8286 55.1876C29.739 55.2425 29.624 55.2956 29.4722 55.3431C29.3244 55.3885 29.182 55.4119 29.0483 55.4211C28.9226 55.4263 28.8115 55.4193 28.7223 55.4061C28.6256 55.3869 28.495 55.3461 28.3336 55.2674C28.1739 55.1928 28.0567 55.1258 27.9862 55.0644C27.91 55.001 27.8162 54.8737 27.705 54.6824C27.5898 54.4932 27.5203 54.3537 27.499 54.2578C27.4834 54.1638 27.472 54.0337 27.469 53.8655C27.466 53.6973 27.4795 53.545 27.5016 53.4126C27.5295 53.2822 27.5561 53.1718 27.5929 53.0853C27.628 52.9949 27.6937 52.8841 27.7908 52.7431C27.8925 52.5899 28.0345 52.4504 28.2126 52.3266C28.3868 52.2049 28.5168 52.1296 28.6109 52.0967C28.6993 52.0618 28.8302 52.0346 29.0055 52.0189C29.1848 52.0013 29.3202 51.996 29.4118 52.0032C29.5033 52.0104 29.6092 52.0394 29.7259 52.0824C29.8385 52.1274 29.9333 52.1766 29.9987 52.2261C30.0698 52.2775 30.158 52.3688 30.2592 52.5021C30.3564 52.6374 30.4339 52.7728 30.4885 52.9005C30.5396 53.0202 30.5742 53.124 30.5961 53.2099C30.6238 53.2978 30.6392 53.4258 30.6538 53.5979C30.6643 53.7721 30.6605 53.9243 30.6367 54.0527C30.6146 54.1851 30.5648 54.3217 30.4833 54.4646C30.4035 54.6116 30.3384 54.7123 30.2839 54.7689C30.2409 54.8294 30.15 54.9043 30.0251 54.9916ZM29.0682 55.0764C29.1094 55.012 29.1569 54.9735 29.2204 54.9609L29.3449 54.9417C29.4101 54.9331 29.4759 54.9145 29.5463 54.8838C29.6145 54.8591 29.7018 54.8103 29.8122 54.7352C29.9227 54.66 29.9928 54.6053 30.0264 54.569C30.06 54.5326 30.106 54.4561 30.1677 54.3474C30.2277 54.2347 30.2634 54.1342 30.283 54.0419C30.3049 53.9436 30.3085 53.8254 30.2961 53.6813C30.286 53.5312 30.2717 53.4172 30.2565 53.3472C30.2356 53.2753 30.2022 53.1855 30.1544 53.0738C30.1101 52.9701 30.0468 52.8565 29.9623 52.7391C29.8794 52.6257 29.8136 52.5522 29.7665 52.5226C29.7177 52.489 29.6476 52.4516 29.558 52.4144C29.4683 52.3772 29.3912 52.3579 29.3291 52.3504C29.2669 52.343 29.1608 52.348 29.0109 52.3654C28.8627 52.3867 28.7578 52.4057 28.6994 52.4303C28.6434 52.4488 28.544 52.5038 28.4046 52.6032C28.2732 52.6986 28.1707 52.8037 28.0974 52.9085C28.0196 53.0253 27.9632 53.112 27.9381 53.1683C27.9123 53.2346 27.887 53.325 27.8662 53.4373C27.8436 53.5456 27.8337 53.6719 27.838 53.8201C27.8366 53.9663 27.8492 54.0763 27.8684 54.1442C27.8858 54.2081 27.9393 54.3218 28.0288 54.4852C28.1281 54.6485 28.2001 54.748 28.2523 54.7896C28.3062 54.8351 28.4027 54.8883 28.5434 54.9531C28.6785 55.0159 28.7779 55.0531 28.8435 55.0685C28.9023 55.068 28.9783 55.0733 29.0682 55.0764Z" fill="#1F1F1F"/>
<path d="M33.4684 53.2962C33.4531 53.3525 33.4229 53.3968 33.372 53.4273L33.2719 53.4923C33.1823 53.5472 33.0674 53.6003 32.9156 53.6478C32.7678 53.6932 32.6254 53.7165 32.4916 53.7258C32.366 53.7309 32.2549 53.7239 32.1656 53.7107C32.0689 53.6916 31.9384 53.6508 31.777 53.5721C31.6172 53.4975 31.5001 53.4305 31.4296 53.3691C31.3533 53.3057 31.2596 53.1784 31.1484 52.9871C31.0331 52.7979 30.9637 52.6584 30.9423 52.5624C30.9267 52.4685 30.9154 52.3384 30.9124 52.1702C30.9093 52.002 30.9229 51.8497 30.945 51.7173C30.9728 51.5869 30.9994 51.4765 31.0362 51.39C31.0713 51.2996 31.1371 51.1888 31.2341 51.0477C31.3358 50.8946 31.4778 50.7551 31.656 50.6313C31.8301 50.5096 31.9602 50.4343 32.0543 50.4014C32.1427 50.3665 32.2736 50.3393 32.4488 50.3236C32.6281 50.306 32.7636 50.3007 32.8551 50.3079C32.9467 50.3151 33.0525 50.3441 33.1692 50.3871C33.2819 50.4321 33.3767 50.4813 33.442 50.5308C33.5132 50.5822 33.6014 50.6735 33.7026 50.8068C33.7997 50.9421 33.8773 51.0775 33.9318 51.2052C33.983 51.3249 34.0175 51.4287 34.0395 51.5146C34.0672 51.6025 34.0826 51.7305 34.0971 51.9026C34.1076 52.0767 34.1038 52.229 34.08 52.3574C34.0579 52.4898 34.0082 52.6264 33.9267 52.7693C33.8469 52.9163 33.7817 53.017 33.7273 53.0736C33.6843 53.134 33.5934 53.209 33.4684 53.2962ZM32.5115 53.3811C32.5528 53.3167 32.6003 53.2782 32.6637 53.2656L32.7883 53.2464C32.8534 53.2378 32.9192 53.2192 32.9897 53.1885C33.0578 53.1638 33.1451 53.115 33.2556 53.0398C33.3661 52.9647 33.4361 52.91 33.4697 52.8737C33.5034 52.8373 33.5493 52.7608 33.6111 52.6521C33.6711 52.5394 33.7068 52.4389 33.7263 52.3466C33.7482 52.2483 33.7518 52.1301 33.7394 51.986C33.7294 51.8359 33.715 51.7219 33.6999 51.6519C33.679 51.58 33.6455 51.4902 33.5978 51.3785C33.5535 51.2748 33.4902 51.1612 33.4056 51.0438C33.3227 50.9304 33.2569 50.8569 33.2098 50.8273C33.1611 50.7937 33.091 50.7563 33.0013 50.7191C32.9117 50.6819 32.8346 50.6625 32.7724 50.6551C32.7102 50.6477 32.6042 50.6526 32.4543 50.67C32.3061 50.6914 32.2011 50.7104 32.1428 50.735C32.0868 50.7535 31.9874 50.8085 31.848 50.9079C31.7166 51.0033 31.614 51.1083 31.5408 51.2132C31.4629 51.33 31.4065 51.4167 31.3814 51.473C31.3557 51.5393 31.3304 51.6296 31.3095 51.742C31.287 51.8503 31.277 51.9766 31.2814 52.1248C31.2799 52.271 31.2925 52.381 31.3117 52.4489C31.3292 52.5128 31.3827 52.6265 31.4722 52.7899C31.5715 52.9532 31.6435 53.0527 31.6957 53.0942C31.7496 53.1398 31.846 53.193 31.9868 53.2578C32.1218 53.3206 32.2213 53.3578 32.2869 53.3732C32.3456 53.3726 32.4217 53.378 32.5115 53.3811Z" fill="#1F1F1F"/>
<path d="M35.0515 51.3296C35.0634 51.3574 35.077 51.3891 35.0888 51.4169C35.1234 51.4863 35.1563 51.5517 35.1909 51.6211C35.2255 51.6905 35.2567 51.7519 35.2804 51.8075C35.3059 51.867 35.3291 51.9324 35.3539 52.0019L35.4015 52.113C35.4144 52.1547 35.4096 52.2005 35.3894 52.2444C35.3692 52.2884 35.3358 52.3245 35.2899 52.3427C35.2441 52.361 35.1971 52.3654 35.1491 52.3558C35.0994 52.3423 35.072 52.3126 35.0591 52.271L35.0149 52.1678C34.9884 52.0944 34.9669 52.0329 34.9431 51.9773C34.9211 51.9258 34.8899 51.8643 34.8587 51.8029C34.8258 51.7375 34.7929 51.672 34.7566 51.5987C34.7227 51.5194 34.6609 51.3865 34.5697 51.1962C34.5005 51.0574 34.4472 50.9444 34.4099 50.8571C34.3855 50.8116 34.3577 50.758 34.3265 50.6966C34.2437 50.5261 34.1854 50.4012 34.148 50.3139C34.1107 50.2266 34.0773 50.1374 34.0497 50.05C34.048 50.046 34.0446 50.0381 34.0412 50.0302C34.0378 50.0222 34.035 50.0043 34.0346 49.9805C34.0341 49.9566 34.0296 49.9347 34.0292 49.9109C34.0287 49.887 34.034 49.865 34.0432 49.8411C34.0525 49.8171 34.0635 49.7971 34.0801 49.7791C34.0968 49.761 34.1152 49.747 34.145 49.7368C34.1748 49.7266 34.208 49.7243 34.2486 49.728C34.3144 49.7334 34.3561 49.751 34.3801 49.7727C34.404 49.7944 34.4125 49.8142 34.4032 49.8382L34.3916 49.8682C34.4205 49.9356 34.4545 50.0149 34.4952 50.1101C34.536 50.2053 34.5716 50.2886 34.6056 50.368C34.6379 50.4433 34.6718 50.5227 34.7075 50.606C34.72 50.6238 34.7342 50.6456 34.7478 50.6773C34.7773 50.7348 34.8 50.7764 34.821 50.814C34.8218 50.6449 34.8218 50.5195 34.825 50.4359C34.8306 50.3463 34.8419 50.2586 34.8515 50.167C34.8594 50.0714 34.8881 49.9219 34.9297 49.7225C34.9799 49.5092 35.0178 49.3696 35.0433 49.3037C35.0808 49.2317 35.1281 49.1597 35.1851 49.0876L35.2558 49.0134C35.2875 48.9733 35.3299 48.9471 35.3849 48.9387C35.4359 48.9324 35.4782 48.94 35.5136 48.9656C35.5489 48.9912 35.5659 49.0308 35.5685 49.0825C35.5694 49.1303 35.5549 49.1762 35.5216 49.2123L35.4525 49.2905C35.4191 49.3265 35.3915 49.3646 35.3719 49.3986C35.3557 49.4405 35.3271 49.5562 35.2827 49.7376C35.2435 49.931 35.2194 50.0685 35.2104 50.1502C35.2031 50.2358 35.1942 50.3175 35.1909 50.4011C35.1876 50.4847 35.1853 50.6161 35.1839 50.7952C35.1772 50.9963 35.1588 51.1357 35.1321 51.2215C35.1045 51.2596 35.0808 51.2956 35.0515 51.3296Z" fill="#1F1F1F"/>
<path d="M37.5923 51.2057C37.5688 51.2509 37.5345 51.2823 37.4912 51.3039C37.4479 51.3256 37.4 51.3256 37.3566 51.3138C37.3115 51.2981 37.2821 51.2745 37.2651 51.2352L37.2475 51.1724C37.2305 51.1331 37.2015 51.0663 37.1607 50.972C37.1199 50.8777 37.0858 50.7992 37.0603 50.7402C37.0365 50.6852 36.9985 50.6086 36.952 50.5124C36.9039 50.4122 36.8433 50.2943 36.7758 50.1608C36.7028 50.0252 36.6331 49.8975 36.5708 49.7758C36.5085 49.654 36.462 49.5577 36.4201 49.4831C36.3782 49.4084 36.338 49.3377 36.2944 49.2592C36.2508 49.1806 36.2174 49.1256 36.1998 49.0961C36.1896 49.0726 36.1738 49.047 36.1523 49.0195L36.1206 48.9685C36.0974 48.937 36.09 48.8977 36.1039 48.8525C36.1161 48.8034 36.1431 48.7661 36.1847 48.7405C36.2246 48.7111 36.273 48.7012 36.3226 48.7051C36.3721 48.7091 36.4054 48.7307 36.4264 48.768L36.4586 48.8092C36.4796 48.8465 36.4988 48.8799 36.5164 48.9094C36.5283 48.9369 36.56 48.988 36.6075 49.0646C36.6511 49.1431 36.6947 49.2217 36.7366 49.2964C36.7785 49.371 36.8306 49.4692 36.893 49.591C36.9514 49.7147 37.0171 49.8444 37.0845 49.978C37.1576 50.1135 37.2221 50.2294 37.2703 50.3296C37.3185 50.4297 37.3564 50.5064 37.382 50.5653C37.4075 50.6242 37.4415 50.7028 37.4841 50.801C37.5266 50.8992 37.5572 50.9699 37.5742 51.0092L37.5953 51.0799C37.6162 51.1173 37.6158 51.1605 37.5923 51.2057Z" fill="#1F1F1F"/>
<path d="M36.9825 48.2863C36.9817 48.2382 36.9981 48.196 37.0317 48.1596C37.0654 48.1232 37.1099 48.1008 37.1636 48.0882C37.2149 48.0818 37.2575 48.0894 37.2931 48.1151L37.4233 48.2241C37.5203 48.3014 37.6275 48.4026 37.7432 48.5237C37.8538 48.6329 37.9403 48.7203 38.0034 48.7758C38.0763 48.8312 38.1773 48.9064 38.3024 49.0035C38.4315 49.0984 38.583 49.2113 38.7495 49.336C38.9176 49.4647 39.0301 49.5438 39.0904 49.5813C39.1524 49.6228 39.2127 49.6603 39.2673 49.6959C39.3144 49.7255 39.3828 49.7589 39.4748 49.7901C39.4921 49.796 39.5134 49.7998 39.5307 49.8056C39.5407 49.7715 39.5449 49.7354 39.5532 49.6972C39.5789 49.5387 39.594 49.4244 39.5927 49.3522C39.5903 49.2661 39.588 49.18 39.5822 49.0858C39.5787 48.9857 39.5682 48.8115 39.549 48.5592C39.5354 48.3088 39.5307 48.1366 39.529 48.0404C39.5272 47.9442 39.5227 47.8301 39.5154 47.6979C39.5139 47.5677 39.5138 47.4755 39.5136 47.4174L39.5147 47.3392C39.5114 47.2972 39.5319 47.2529 39.5655 47.2166C39.6032 47.1781 39.6477 47.1557 39.6974 47.1452C39.7487 47.1387 39.7913 47.1464 39.8246 47.1781C39.8619 47.2078 39.8772 47.2437 39.874 47.2939L39.8811 47.3679C39.8779 47.4181 39.878 47.5102 39.8795 47.6405C39.8868 47.7726 39.8896 47.8828 39.8896 47.975C39.8937 48.0651 39.8985 48.2374 39.9137 48.4917C39.9289 48.746 39.9353 48.9223 39.9452 49.0144C39.9486 49.1145 39.9527 49.2047 39.9551 49.2908C39.9609 49.3849 39.9503 49.5213 39.9192 49.7019C39.9186 49.7119 39.9173 49.732 39.9096 49.7601C39.906 49.7862 39.9007 49.8083 39.896 49.8203C39.8913 49.8324 39.886 49.8545 39.8801 49.8866C39.8741 49.9187 39.8688 49.9408 39.8641 49.9529C39.8594 49.9649 39.8484 49.9851 39.835 50.0112C39.8215 50.0374 39.8047 50.0556 39.7902 50.0677C39.7758 50.0799 39.7572 50.0941 39.7364 50.1143C39.7155 50.1346 39.6912 50.1468 39.6601 50.1431C39.5717 50.178 39.4588 50.167 39.319 50.1162C39.1958 50.0812 39.1061 50.044 39.0424 49.9985C38.9838 49.965 38.9235 49.9275 38.8615 49.8859C38.7938 49.8425 38.6738 49.7574 38.5022 49.6208C38.3341 49.4921 38.1883 49.3812 38.0551 49.2883C37.926 49.1933 37.8233 49.1141 37.7545 49.0566C37.6782 48.9932 37.5801 48.9019 37.4604 48.7828C37.3561 48.6655 37.2581 48.5743 37.1744 48.5049L37.0361 48.4C37.0005 48.3743 36.9834 48.3343 36.9825 48.2863Z" fill="#1F1F1F"/>
<path d="M43.7435 47.3816L43.7354 47.3857C43.7259 47.4438 43.7187 47.4958 43.7178 47.5399C43.7072 47.5839 43.6983 47.632 43.6854 47.6821C43.6694 47.7483 43.6244 47.8727 43.5486 48.0514C43.4745 48.2341 43.4116 48.3626 43.3582 48.4331C43.3089 48.5016 43.2579 48.566 43.2035 48.6225C43.1491 48.679 43.093 48.7315 43.0369 48.784C42.975 48.8346 42.8994 48.8873 42.8082 48.9381C42.7153 48.985 42.6034 49.022 42.4767 49.0471C42.3621 49.0662 42.2717 49.073 42.209 49.0756C42.1463 49.0781 42.0819 49.0767 42.014 49.0673C41.9479 49.0619 41.8749 49.0406 41.7986 49.0113C41.7091 48.9741 41.6248 48.9149 41.5425 48.8256C41.4636 48.7443 41.4093 48.6748 41.378 48.6131C41.3484 48.5554 41.3235 48.4856 41.2999 48.3958C41.2779 48.31 41.2749 48.2341 41.2753 48.1661C41.274 48.0941 41.2901 47.9939 41.3219 47.8616C41.3521 47.7254 41.3861 47.6211 41.4256 47.5527C41.4628 47.4904 41.4999 47.428 41.5469 47.3656C41.5939 47.3032 41.6536 47.2246 41.7335 47.1359C41.8215 47.0431 41.9348 46.9521 42.0687 46.8748C42.2009 46.7936 42.3157 46.7406 42.4084 46.7278C42.5052 46.7129 42.6547 46.7295 42.8552 46.7737C42.8822 46.7795 42.9052 46.7872 42.9322 46.793C42.8556 46.7057 42.7956 46.6342 42.7499 46.5847C42.6909 46.5272 42.6131 46.4599 42.5105 46.3808C42.4138 46.3037 42.3312 46.2485 42.2613 46.2111C42.1953 46.1717 42.1247 46.1443 42.0575 46.125C42.0018 46.1095 41.9006 46.1024 41.7636 46.1036C41.6226 46.1069 41.5063 46.122 41.4164 46.1528C41.3167 46.1837 41.2406 46.2124 41.184 46.2409C41.1217 46.2675 41.0652 46.296 41.0138 46.3364C40.9693 46.3588 40.8907 46.4276 40.7882 46.5325C40.7147 46.6132 40.6677 46.6756 40.6439 46.7118L40.628 46.7779C40.6134 46.8241 40.5872 46.8663 40.5462 46.8967C40.5052 46.9271 40.4573 46.9415 40.4067 46.938C40.3561 46.9344 40.3206 46.9087 40.2955 46.873C40.2704 46.8372 40.2614 46.7933 40.272 46.7492L40.2967 46.669C40.3139 46.5828 40.3974 46.468 40.5438 46.3167C40.6758 46.1775 40.781 46.0906 40.8561 46.0479C40.9213 46.0053 40.9883 45.9667 41.0586 45.936C41.1354 45.8973 41.2374 45.8604 41.355 45.8253C41.4807 45.7862 41.6287 45.7649 41.8047 45.7633C41.9791 45.7577 42.1154 45.7664 42.2096 45.7916C42.2998 45.8188 42.3876 45.852 42.4765 45.8991C42.5654 45.9463 42.6628 46.0135 42.7745 46.1024C42.8862 46.1914 42.9732 46.2686 43.0355 46.3341C43.0979 46.3995 43.1819 46.4927 43.2911 46.6217C43.3951 46.7388 43.474 46.8201 43.5238 46.8676C43.5712 46.9212 43.6146 46.9768 43.6621 47.0304C43.7095 47.0839 43.7404 47.1216 43.7604 47.1455C43.7982 47.1651 43.8089 47.213 43.7964 47.2871L43.7435 47.3816ZM43.3862 47.3729C43.3409 47.3473 43.2997 47.3197 43.2618 47.3C43.2108 47.2725 43.154 47.243 43.0914 47.2115C43.0306 47.1841 42.9117 47.1472 42.7382 47.1088C42.5704 47.0723 42.4658 47.0572 42.4162 47.0677C42.3805 47.076 42.3182 47.1026 42.227 47.1534C42.1295 47.2123 42.0532 47.275 41.9964 47.3375C41.9252 47.4122 41.8742 47.4766 41.8417 47.5269C41.8092 47.5772 41.7767 47.6275 41.7442 47.6778C41.7221 47.718 41.6998 47.7922 41.6739 47.8924C41.6497 47.9967 41.6355 48.0668 41.6346 48.1108C41.6379 48.1528 41.6438 48.2127 41.6573 48.2786C41.673 48.3384 41.6877 48.3843 41.7071 48.4181C41.7224 48.454 41.7584 48.5037 41.819 48.5651C41.8779 48.6226 41.9284 48.6601 41.9743 48.6757C42.0277 48.6972 42.0776 48.7108 42.1185 48.7144C42.1593 48.718 42.2042 48.7196 42.249 48.7212C42.2939 48.7228 42.367 48.7101 42.4621 48.6913C42.545 48.6785 42.6147 48.6579 42.6713 48.6294C42.7342 48.5928 42.7833 48.5583 42.8203 48.53C42.8596 48.4956 42.9013 48.4553 42.9453 48.4089C42.9893 48.3625 43.0275 48.3141 43.0698 48.2637C43.1023 48.2134 43.1518 48.111 43.2183 47.9564C43.2831 47.7978 43.3228 47.6954 43.3351 47.6553C43.344 47.6073 43.3489 47.5612 43.3531 47.5252C43.3608 47.4971 43.368 47.445 43.3862 47.3729Z" fill="#1F1F1F"/>
</svg>
