<svg width="71" height="86" viewBox="0 0 71 86" fill="none" xmlns="http://www.w3.org/2000/svg">
<path d="M61.9749 57.9174C64.7661 49.0788 56.9353 42.6048 52.671 40.4727C51.7019 43.9616 50.345 51.7536 52.671 55.01C54.997 58.2663 55.5785 62.5694 55.5785 64.3139V68.9658L61.9749 57.9174Z" fill="#1F1F1F" stroke="#1F1F1F"/>
<path d="M36.6879 3.12561C41.0345 0.531231 46.5011 0.171615 43.4901 5.7366C40.6491 10.9874 37.7661 12.7972 36.4813 13.1144C39.7065 12.4897 44.0998 11.6993 43.0705 15.7667C42.3026 18.8009 38.2302 20.5202 37.2695 20.6486C39.8442 20.8912 41.7663 23.5676 39.6148 25.0285C35.3119 27.9501 32.5451 27.7326 31.6996 27.2587C32.0201 28.1936 32.3926 32.4451 25.0141 29.9111L17.4687 25.0288C22.0228 18.6281 28.9436 7.74458 36.6879 3.12561Z" fill="white" stroke="#1F1F1F"/>
<path d="M50.9309 64.3071L25.3452 62.5627L14.2969 52.0958L16.6228 24.7656L47.442 26.5101L53.8384 36.977L50.9309 64.3071Z" fill="#F40000"/>
<path d="M27.0897 36.977L25.3452 62.5627M27.0897 36.977H53.8384M27.0897 36.977L16.6228 24.7656M27.0897 36.977L30.3774 49.1883M25.3452 62.5627L50.9309 64.3071M25.3452 62.5627L14.2969 52.0958L16.6228 24.7656M25.3452 62.5627L30.3774 49.1883M50.9309 64.3071L53.8384 36.977M50.9309 64.3071L48.6721 49.1883M53.8384 36.977L47.442 26.5101L16.6228 24.7656M53.8384 36.977L48.6721 49.1883M48.6721 49.1883L47.442 52.0958H31.1602L30.3774 49.1883" stroke="#1F1F1F"/>
<path d="M21.8522 56.1719L1.5 63.7313L10.2224 84.665L14.2928 77.1056C34.6451 86.991 53.2529 78.2686 55.5788 75.9426C57.4396 74.0819 60.6184 62.7621 61.9753 57.3349C55.4625 71.2907 30.5746 68.5771 18.9448 65.4758L21.8522 56.1719Z" fill="#FDA3C4" stroke="#1F1F1F"/>
<path d="M40.0661 40.4014C41.6606 41.4589 41.9473 42.8318 39.8784 43.96C33.4823 47.4481 32.9005 39.3081 35.2265 36.4006C37.0872 34.0747 50.3452 18.3752 62.5566 13.1409C67.2085 11.1451 72.6745 11.5127 68.953 16.6299C65.4415 21.4582 62.3442 22.8701 61.0288 23.0144C64.3082 22.8223 68.7675 22.6208 67.2085 26.5161C66.0456 29.4218 61.7812 30.5865 60.8121 30.5865C63.3319 31.168 64.8826 34.0755 62.5566 35.2385C57.9046 37.5644 55.191 36.9824 54.4157 36.4006C54.6095 37.3698 54.4157 41.6332 47.4378 38.1441C49.0226 40.7855 47.7279 43.4276 40.0661 40.4014Z" fill="white" stroke="#1F1F1F"/>
</svg>
