<svg width="43" height="49" viewBox="0 0 43 49" fill="none" xmlns="http://www.w3.org/2000/svg">
<path id="Vector" d="M37.2818 29.4602C30.8643 35.9735 23.6625 40.5753 18.5998 48.3628C18.2433 48.8584 17.6728 48.9292 17.1024 48.7168C16.7459 49.0708 16.1041 49.1416 15.605 48.646C9.75795 42.062 6.26395 34.416 3.76826 26.2744C1.77171 19.7612 -2.364 9.63728 1.77172 3.47801C4.48132 -0.628173 9.97183 -0.840553 14.3215 1.49572C19.1702 4.11518 21.0242 8.9293 21.9512 13.8142C23.8764 10.2744 26.7286 7.23023 31.2209 6.59306C36.4262 5.8851 40.9897 9.3541 42.4871 14.0974C44.2698 19.9027 41.1323 25.4957 37.2818 29.4602ZM39.1358 13.6727C36.9253 9.28332 31.5061 8.36296 27.7982 11.0532C24.8747 13.1063 23.5912 16.4337 22.4503 19.6195C22.0225 20.8939 19.812 20.5399 19.6694 19.1948C19.0276 13.5311 18.2433 5.95589 11.8258 3.40723C9.47269 2.1329 7.69006 2.77006 6.26395 5.17714C3.34043 6.23908 2.27087 8.15057 3.12654 11.0532C3.26915 13.6019 3.9822 16.1506 4.55265 18.6284C6.90573 28.5399 10.3284 38.0266 16.3893 46.5221C20.8816 39.1593 27.1565 34.6992 33.5026 28.9647C37.6384 25.2833 42.0593 19.478 39.1358 13.6727Z" fill="#1F1F1F"/>
</svg>
