<svg width="52" height="59" viewBox="0 0 52 59" fill="none" xmlns="http://www.w3.org/2000/svg">
<path id="Vector" d="M45.085 35.4725C37.3243 43.315 28.6151 48.8559 22.4928 58.2328C22.0616 58.8295 21.3718 58.9148 20.682 58.659C20.2508 59.0853 19.4748 59.1705 18.8712 58.5738C11.8003 50.646 7.57501 41.4396 4.55696 31.6365C2.14253 23.794 -2.85879 11.6041 2.14254 4.18781C5.41927 -0.756372 12.059 -1.01209 17.319 1.80097C23.1826 4.95502 25.4246 10.7516 26.5456 16.6335C28.8738 12.3713 32.323 8.70578 37.7555 7.93858C44.0502 7.08614 49.5689 11.2631 51.3798 16.9745C53.5355 23.9645 49.7414 30.6988 45.085 35.4725ZM47.327 16.463C44.6539 11.1779 38.1004 10.0697 33.6164 13.309C30.081 15.7811 28.5289 19.7875 27.1492 23.6235C26.6318 25.1579 23.9587 24.7317 23.7862 23.1121C23.0101 16.2925 22.0616 7.17138 14.3009 4.10258C11.4553 2.56818 9.29961 3.33538 7.57501 6.23369C4.03959 7.51236 2.74617 9.81395 3.78093 13.309C3.95339 16.3778 4.81569 19.4466 5.50552 22.4301C8.35111 34.3644 12.4901 45.7871 19.8197 56.0164C25.2521 47.151 32.8404 41.7806 40.5148 34.8758C45.5162 30.4431 50.8624 23.4531 47.327 16.463Z" fill="#1F1F1F"/>
</svg>
