<svg width="99" height="23" viewBox="0 0 99 23" fill="none" xmlns="http://www.w3.org/2000/svg">
<path id="Vector" d="M0.0179291 19.203C0.708008 13.8853 1.65686 8.1389 5.62481 4.1078C8.98894 0.677076 14.0783 -1.12408 18.7363 0.762823C23.9981 2.90703 26.1546 8.22467 28.9149 12.6846C30.5539 15.3434 33.6592 19.1172 37.3684 18.3453C39.8699 17.7449 40.905 15.1719 41.6814 13.0277C43.0615 9.51116 43.9241 5.56584 46.8569 2.90703C50.1348 -0.00909027 54.7929 0.334003 58.2432 2.82128C62.9013 6.08047 64.1951 11.6554 68.0768 15.6007C70.8371 18.3453 74.2013 18.088 76.8753 15.2577C79.0318 12.8562 79.6357 9.68272 81.2746 6.93814C83.9486 2.4782 89.2967 1.44897 93.7823 4.19355C99.0441 7.53851 99.6479 14.2284 98.5265 19.7176C98.0952 21.9475 94.3861 21.4329 94.4723 19.203C94.4723 16.6299 94.7311 13.8854 93.8685 11.3981C92.7471 8.22467 88.7792 5.65159 86.0189 8.5677C84.4662 10.1973 84.0349 12.7704 82.9998 14.743C81.9647 16.8015 80.412 18.6883 78.6005 20.1464C70.7509 26.0644 64.1089 18.7741 60.3134 12.3415C58.2432 8.82503 52.8951 2.04932 49.186 7.71002C47.202 10.6261 46.7707 14.4 45.1318 17.4876C41.0775 25.2925 32.3653 24.1775 27.1034 18.088C23.7393 14.2284 22.1004 6.85236 16.7523 5.05123C8.47135 2.39242 5.71106 13.7138 5.02098 19.203C4.41717 22.1191 -0.32711 22.2049 0.0179291 19.203Z" fill="#1F1F1F"/>
</svg>
